<svg width="98" height="118" viewBox="0 0 98 118" fill="none" xmlns="http://www.w3.org/2000/svg">
    <g filter="url(#filter0_d_2187_17056)">
        <path d="M50.6008 22.9155C65.3736 42.1094 72.1542 51.0535 72.1542 64.5003C72.1542 67.5965 71.5443 70.6624 70.3595 73.5229C69.1746 76.3834 67.4379 78.9825 65.2486 81.1718C63.0593 83.3612 60.4602 85.0978 57.5997 86.2827C54.7391 87.4676 51.6733 88.0774 48.5771 88.0774C45.4809 88.0774 42.415 87.4676 39.5545 86.2827C36.694 85.0978 34.0949 83.3612 31.9056 81.1718C29.7162 78.9825 27.9796 76.3834 26.7947 73.5229C25.6098 70.6624 25 67.5965 25 64.5003C25 51.0535 31.7805 42.1094 46.5534 22.9155C47.5714 21.5927 49.5827 21.5927 50.6008 22.9155Z" fill="white" stroke="#429AF2" stroke-width="4" />
        <path d="M40 55.0002L40.0227 55" stroke="#429AF2" stroke-width="7.01" stroke-linecap="round" stroke-linejoin="round" />
        <path d="M39.09 66.9577C39.09 66.9577 42.4942 71.4966 48.1678 71.4966C53.8414 71.4966 57.2456 66.9577 57.2456 66.9577" stroke="#429AF2" stroke-width="5.01121" stroke-linecap="round" stroke-linejoin="round" />
    </g>
    <path d="M52.0001 56.0486C52.0001 56.0486 53.1906 54.9301 55.2339 54.6238C57.2773 54.3176 59.5708 56.3766 59.5708 56.3766" stroke="#429AF2" stroke-width="5.01121" stroke-linecap="round" stroke-linejoin="round" />
    <defs>
        <filter id="filter0_d_2187_17056" x="0" y="0.92334" width="97.1543" height="116.154" filterUnits="userSpaceOnUse" color-interpolation-filters="sRGB">
            <feFlood flood-opacity="0" result="BackgroundImageFix" />
            <feColorMatrix in="SourceAlpha" type="matrix" values="0 0 0 0 0 0 0 0 0 0 0 0 0 0 0 0 0 0 127 0" result="hardAlpha" />
            <feOffset dy="4" />
            <feGaussianBlur stdDeviation="11.5" />
            <feComposite in2="hardAlpha" operator="out" />
            <feColorMatrix type="matrix" values="0 0 0 0 0.328284 0 0 0 0 0.665925 0 0 0 0 1 0 0 0 0.4 0" />
            <feBlend mode="normal" in2="BackgroundImageFix" result="effect1_dropShadow_2187_17056" />
            <feBlend mode="normal" in="SourceGraphic" in2="effect1_dropShadow_2187_17056" result="shape" />
        </filter>
    </defs>
</svg>