<svg version="1.1" id="Layer_1" xmlns="http://www.w3.org/2000/svg" x="0" y="0" viewBox="0 0 196.5 183.8" style="enable-background:new 0 0 196.5 183.8" xml:space="preserve"><style>.st0{fill-rule:evenodd;clip-rule:evenodd;fill:#fff}</style><path class="st0" d="M178.8 139.7c-3.3 1.6-7.7 3.7-13.6 6.9-2.5 1.4-5.2 2.9-8.3 4.6-12.3 7-21.2 11.2-28.2 14.4-4.2 2-7.7 3.6-10.8 5.3-.1.1-.1.1-.2.1h-.3c-.7 0-1.7.5-2.7 1-1 .5-2 1-2.6 1-.6 0-1.3.3-1.9.5-.4.2-.7.3-.8.3-1.5-.1-6.1 1.1-8 1.6-.4.1-.6.2-.8.1s-.1-.3-.1-.8c.2-3.7.9-17 .4-22.7 0-.4.1-1 .2-1.6v-.3c.1-.4.1-.6 0-.7-.1-.1-.3-.1-.7 0-1.4.3-2.4.6-2.3.8l-.9-5.5c.1.8 10.2.4 12.5.3.2 0 .4.2.3.4 0 0 .1-.6.1-.3-.2 1.1-.3 1.6-.3 1.6 0 .4 0 .4.4.4 0 0 .3-.1.8-.2.3-.1.7-.2 1-.2 1.2-.3 1.9-1.1 2.2-1.7.2-.3.2-.4.1-.6-.1-.2-.3-.2-.6-.2-2.9-.1-12.6-.6-12.7-1.5-.3-4.9-.5-10.7-.7-17.4-.1-5-.7-11.3-1.3-15.3-.1-.4-.1-.6 0-.7.1-.1.3-.1.7-.1 1.9-.1 4.7-.6 6.5-1.1.4-.1.6-.2.6-.4s-.2-.3-.5-.4c-.8-.3-1.9-.6-2.9-.8-1.7-.4-3.4-.8-3.4-1.3 0-.4-.1-.8-.1-1.2-.1-.4-.1-.8-.1-1.2 0-.2.9 0 2.3.2.7.1 1.6.3 2.4.4.7.1 1 .1 1.1-.1.1-.3-.2-.4-.7-.8-1.5-.9-3.4-1.6-4.6-2-.7-.2-1.1-.4-1.1-.4V98.4c.3-2.5.6-5.5.9-8.8.7-7.7 1.6-16.5 2.7-21.8.7-3.3 1.8-5.6 2.4-6.6.1-.2.2-.4.3-.4.1 0 .3 0 .5.2.2.1.4.2.5.3 1.9 1 2.7 1.4 5.3 3.3.4.3 1 .7 1.7 1.1.1.1.2.1.2.2s.1.1.1.3l.3 1.5c.1.4.1.6.2.7.1.1.3 0 .7-.1l1.3-.5c.1 0 .1-.1.2-.1h.1s.1 0 .2.1c6.2 3.8 16.5 10.1 25.6 17.3.2.1-.2.9-.6 1.7-.4.8-.8 1.6-.6 1.8.2.2 1-.3 1.7-.8.8-.5 1.5-1 1.8-.8 2 1.6 4.2 3.4 6.5 5.3 2.2 1.8 4.6 3.7 7.1 5.7 3.5 2.8 6.6 5.2 9.4 7.3.4.3-1.4 1.3-3.8 2.6-2.1 1.2-4.7 2.6-6.5 4-.7.5-1.1.8-.9 1 .1.3.6.1 1.4-.2 2.9-1 6.5-2.2 9.4-3-.8.1-1.5.3-2.1.4-.6.1-.9.2-1 0-.1-.2 0-.4.4-.8.3-.4.8-.9 1.4-1.2 1.3-.7 2.9-1.4 4.2-1.9 1.4-.6 2.4-1 2.5-1.2l-.9 3.2V108.5c0 .1.2.2.6.5 7.2 5.5 11.4 9.9 14.4 13.2 2.3 2.5 6.5 5.5 8.3 6.8.4.3.6.4.6.6 0 .2-.2.3-.7.6-2.1 1.2-7.2 4.1-9.4 5.8-1.3 1.1-3.5 2.1-6.8 3.7zm-58.3-11.2 6-4.8c.1 0 .1-.1.1-.1h.1l6.7-1.6-6.4 2.5h-.2l-6.3 4zm41.7 18.1c1.8-1 2.7-1.5 2.6-1.8-.1-.3-1.1 0-3.1.5H161.4l-20.8 12.2-4.4 3.2 26-14.1z"/><path d="m127 131.6-.9-.8.2-22.1c1-.9 2.3-1.9 4.1-2.9l9.2 15.4 2.8-1.7c.4-.3.8 0 1.3.7.2.3.3.6.4.8.1.3.1.4 0 .5l-3.1 1.8 2.5 4.3c.3.4.7.6 1.2.6.5-.1 1.1-.2 1.9-.6.5-.2.9-.3 1.2-.4.3-.1.5 0 .6.2.1.1.1.3.1.4l-11.3 6.7-.3-.3c-.1-.2-.1-.4.1-.7.2-.2.5-.5 1-.9.7-.5 1.1-1 1.4-1.4.3-.4.3-.8 0-1.3l-2.5-4.1-9.9 5.8zm1.1-3.7 7.4-4.4-7.3-12.1-.1 16.5z"/><path class="st0" d="M87.7 1.3c.1-.2.1-.2.1-.3 0-.3-.2-.4-.5-.4 0 0-.1.1-.2.1l-7.7 4.9-36.3 29.8-23.6 18c-.1 0-.1.1-.1.1s0 .1-.1.1l-11 19.1c-.2.3-.2.4-.2.5 0 .1.2.2.4.4l.9.7c1.3.9 1.9 1.3 1.7 1.6-.1.3-.9.1-2.4-.3l-1.3-.4c-.3-.1-.4-.1-.5-.1-.1 0-.2.2-.3.4l-1.1 1.9c-.3.5-.4.7-.3.9.1.2.4.2.9.2l6.5.3h.2l6.8-1.5 6-.7 4.7 9.7v.2l2.2 7.5c.3 1.1.5 1.7.5 1.8-.1.2-.3.3-.5.2-.1-.1-.4-.6-.9-1.6l-.1-.2-2.5-6.7-4.8-9.5c-.1-.3-.2-.4-.3-.4-.1-.1-.3 0-.5.1l-2.9 1-7.8 2-7.7 1c-.3 0-.4.1-.5.2-.1.1-.1.2-.1.5l-1.7 35.3.1 27.7v.4c0 .1-.1.1-.3.2-1.5.6-2.5 1.3-2.5 1.5 0 .4.6 4.3 1 6.6.1.8.2 1.1.4 1.2.2.1.5-.3.9-.9l6.9-10.5L3 156.3c0 .1-.1.1-.1.2v.2l.1 19c0 1.2 0 1.8.3 1.9.3.1.5-.5 1.1-1.6l2-4.1 6-14.4 17.5-36.3 6.7-11.9-6.5 14.8-16.2 34.5-8.4 22.9c-.3.8-.5 1.3-.3 1.4.2.2.6-.1 1.3-.6l3.2-2.1c.8-.7 12.6-11.9 14.7-13.8 3.9-3.5 14.6-14.5 14.7-14.6l9.9-9.6c.1-.1.1-.1.1-.2 0 0 0-.1.1-.2l1.7-7.4c.4-1.8.6-2.7.9-2.6.3 0 .4.9.5 2.7l.2 2.7c0 .7.1 1 .3 1.1.2.1.4-.2.9-.6l1.8-1.8c.1-.1.2-.2.2-.3v-.4l-.4-1.9c-.2-1.1-.3-1.7-.1-1.8.3-.1.6.3 1.3 1.2l.4.5c.2.3.3.4.5.4s.3-.1.6-.4l18.8-18.4c.2-.2.3-.3.3-.4 0-.1-.1-.3-.2-.5l-2.5-3.4-4.8-8.7c-.5-1.2-.7-1.7-.7-1.8.1-.2.3-.3.5-.2.1 0 .4.6 1.1 1.6l5.1 8.1 1.7 2.6c.4.5.5.8.8.8.2 0 .3-.3.5-1L86.1 87v-.2l1.5-34.2v-.7c-.1-.2-.3-.2-.5-.2-.1 0-.2.2-.4.6-.4.6-.6.9-.7 1-.2.1-.4 0-.5-.2 0-.1.1-.5.3-1.2l2.2-7.3v-.2l.9-19.6V3.4c0-.3-.3-.4-.6-.2l-.1.1s-.1.1-.1.2l-6.3 29.8-4.5 15.4 2.5-13.3 6.3-28.3c.2-.9.3-1.4.1-1.5-.2-.1-.6.2-1.3.9l-1.7 1.6L74 20.5l-25.7 31-9.3 9.8 9.8-12.7 23.9-29.4 15-17.7v-.2zM10.5 141.2s0-.1 0 0c.1-.1.1-.1.2-.1v-.1c.2-.4.3-.6.3-.7 0-.2-.2-.4-.4-.3-.1 0-.3.2-.7.5l-5.1 4c2.2-1.4 4.5-2.7 5.7-3.3zm56.6-44.1c.3-.1.5-.2.6-.1.1.1.2.2.3.5l.2.3c.1.3.2.5.2.6-.1.1-.2.2-.6.3l-9.9 3.7h-.2l-7.1.9-.3.1c-1.1.3-1.7.4-1.8.4-.2-.1-.3-.3-.2-.5.1-.1.6-.3 1.6-.8l7.6-1.6h.2l9.4-3.8zm5-18.8v-.1l1.2-11.1-2.4 10.7-1.5 10.4 2.7-9.9z"/><path d="M88.9 0z" style="fill:#fff"/><path d="M30.2 94.4c-.2.7-.2 1.2.2 1.6.4.4 1 .9 1.9 1.3.6.3 1 .6 1.3.8.3.2.3.5.2.8 0 0-.1.2-.3.4l-13.1-5.8c0-.2 0-.3.1-.4.1-.3.3-.4.7-.3.3 0 .8.1 1.4.3.6.2 1.1.3 1.5.3.4.1.8 0 1.1-.1.4-.1.7-.4.8-.8l6.3-14.4c.2-.4.2-.8 0-1.2-.1-.3-.4-.6-.7-.9-.3-.2-.7-.5-1.3-.9-.6-.3-1-.6-1.2-.8-.2-.2-.3-.5-.2-.7 0-.1.1-.2.3-.3l13.1 5.8c0 .3-.1.4-.1.5-.1.3-.4.4-.7.4-.3 0-.8-.2-1.5-.4-.9-.3-1.6-.5-2.2-.5-.6 0-1 .3-1.3 1l-6.3 14.3zm11.4-3.8c.8-1.8 2-3.3 3.5-4.6 1.6-1.2 3.4-2 5.5-2.3 2.1-.3 4.3.1 6.6 1.1 2.4 1 4.1 2.4 5.4 4.2 1.2 1.7 1.9 3.6 2.1 5.6.1 2-.2 3.9-1 5.7-.8 1.8-2 3.3-3.5 4.6-1.5 1.2-3.4 2-5.5 2.2-2.1.3-4.3-.1-6.6-1.1-2.4-1-4.2-2.4-5.4-4.2-1.2-1.7-1.9-3.6-2.1-5.6-.2-1.8.2-3.7 1-5.6zm4.4 2c-.6 1.5-1 3-1.1 4.5-.1 1.5.2 2.9.7 4.1.6 1.2 1.5 2.1 2.8 2.7 1.5.7 3 .8 4.4.5 1.4-.4 2.6-1.1 3.7-2.2s2-2.4 2.6-3.9c.7-1.5 1-3.1 1.2-4.6s-.1-3-.7-4.3c-.6-1.3-1.5-2.2-2.7-2.7-1.5-.6-2.9-.8-4.3-.4s-2.7 1.2-3.8 2.3c-1.2 1.1-2.1 2.4-2.8 4z"/></svg>